<svg width="1280" height="720" viewBox="0 0 1280 720" fill="none" xmlns="http://www.w3.org/2000/svg">
<rect width="1280" height="720" fill="#C6DDDA"/>
<path d="M53 687V33C53 25.8203 58.8203 20 66 20H1213C1220.18 20 1226 25.8203 1226 33V687C1226 694.18 1220.18 700 1213 700H66C58.8203 700 53 694.18 53 687Z" fill="url(#paint0_linear_4_15)"/>
<path d="M106 698.001V21.9989C106 20.895 106.895 20 107.999 20H1224C1225.1 20 1226 20.895 1226 21.999V698.001C1226 699.105 1225.11 700 1224 700H107.999C106.895 700 106 699.105 106 698.001Z" fill="#F6FFF8"/>
<g filter="url(#filter0_d_4_15)">
<rect x="121" y="29" width="1089" height="661.179" rx="20.1339" fill="white"/>
</g>
<defs>
<filter id="filter0_d_4_15" x="105.443" y="17.3321" width="1120.11" height="692.293" filterUnits="userSpaceOnUse" color-interpolation-filters="sRGB">
<feFlood flood-opacity="0" result="BackgroundImageFix"/>
<feColorMatrix in="SourceAlpha" type="matrix" values="0 0 0 0 0 0 0 0 0 0 0 0 0 0 0 0 0 0 127 0" result="hardAlpha"/>
<feOffset dy="3.88929"/>
<feGaussianBlur stdDeviation="7.77857"/>
<feComposite in2="hardAlpha" operator="out"/>
<feColorMatrix type="matrix" values="0 0 0 0 0 0 0 0 0 0 0 0 0 0 0 0 0 0 0.25 0"/>
<feBlend mode="normal" in2="BackgroundImageFix" result="effect1_dropShadow_4_15"/>
<feBlend mode="normal" in="SourceGraphic" in2="effect1_dropShadow_4_15" result="shape"/>
</filter>
<linearGradient id="paint0_linear_4_15" x1="53" y1="20" x2="643.096" y2="1037.92" gradientUnits="userSpaceOnUse">
<stop stop-color="#92FFC0"/>
<stop offset="1" stop-color="#002661"/>
</linearGradient>
</defs>
</svg>
